<svg height="300" version="1.1" width="300" xmlns="http://www.w3.org/2000/svg" xmlns:xlink="http://www.w3.org/1999/xlink" style="overflow: hidden; position: relative;"><desc style="-webkit-tap-highlight-color: rgba(0, 0, 0, 0);">Created with Raphaël 2.2.0</desc><defs style="-webkit-tap-highlight-color: rgba(0, 0, 0, 0);"></defs><circle cx="60" cy="50" r="40" fill="none" stroke="#0b8ac9" stroke-width="5" style="-webkit-tap-highlight-color: rgba(0, 0, 0, 0);"></circle><circle cx="105" cy="100" r="40" fill="none" stroke="#f0c620" stroke-width="5" style="-webkit-tap-highlight-color: rgba(0, 0, 0, 0);"></circle><circle cx="150" cy="50" r="40" fill="none" stroke="#1a1a1a" stroke-width="5" style="-webkit-tap-highlight-color: rgba(0, 0, 0, 0);"></circle><circle cx="195" cy="100" r="40" fill="none" stroke="#10a54a" stroke-width="5" style="-webkit-tap-highlight-color: rgba(0, 0, 0, 0);"></circle><circle cx="240" cy="50" r="40" fill="none" stroke="#e11032" stroke-width="5" style="-webkit-tap-highlight-color: rgba(0, 0, 0, 0);"></circle><rect x="30" y="148" width="240" height="150" rx="0" ry="0" fill="#10a54a" stroke="#f0c620" stroke-width="5" style="-webkit-tap-highlight-color: rgba(0, 0, 0, 0);"></rect><path fill="#0b8ac9" stroke="#0b8ac9" d="M150,198M150,158C226.98003589195008,158,275.0925583244189,191.33333333333334,236.60254037844388,218C218.7392608830357,230.37604307034013,185.72655899081636,238,150,238C73.01996410804992,238,24.907441675581104,204.66666666666666,63.39745962155612,178C81.26073911696429,165.62395692965987,114.27344100918364,158,150,158C150,158,150,158,150,158" stroke-linejoin="round" stroke-linecap="round" stroke-width="2" opacity="0.182" transform="matrix(1,0,0,1,0,0)" style="-webkit-tap-highlight-color: rgba(0, 0, 0, 0); stroke-linejoin: round; stroke-linecap: round; opacity: 0.182;"></path><path fill="#0b8ac9" stroke="#0b8ac9" d="M150,198M150,158C226.98003589195008,158,275.0925583244189,191.33333333333334,236.60254037844388,218C218.7392608830357,230.37604307034013,185.72655899081636,238,150,238C73.01996410804992,238,24.907441675581104,204.66666666666666,63.39745962155612,178C81.26073911696429,165.62395692965987,114.27344100918364,158,150,158C150,158,150,158,150,158" stroke-linejoin="round" stroke-linecap="round" stroke-width="4" opacity="0.182" transform="matrix(1,0,0,1,0,0)" style="-webkit-tap-highlight-color: rgba(0, 0, 0, 0); stroke-linejoin: round; stroke-linecap: round; opacity: 0.182;"></path><path fill="#0b8ac9" stroke="#0b8ac9" d="M150,198M150,158C226.98003589195008,158,275.0925583244189,191.33333333333334,236.60254037844388,218C218.7392608830357,230.37604307034013,185.72655899081636,238,150,238C73.01996410804992,238,24.907441675581104,204.66666666666666,63.39745962155612,178C81.26073911696429,165.62395692965987,114.27344100918364,158,150,158C150,158,150,158,150,158" stroke-linejoin="round" stroke-linecap="round" stroke-width="6" opacity="0.182" transform="matrix(1,0,0,1,0,0)" style="-webkit-tap-highlight-color: rgba(0, 0, 0, 0); stroke-linejoin: round; stroke-linecap: round; opacity: 0.182;"></path><path fill="#0b8ac9" stroke="#0b8ac9" d="M150,198M150,158C226.98003589195008,158,275.0925583244189,191.33333333333334,236.60254037844388,218C218.7392608830357,230.37604307034013,185.72655899081636,238,150,238C73.01996410804992,238,24.907441675581104,204.66666666666666,63.39745962155612,178C81.26073911696429,165.62395692965987,114.27344100918364,158,150,158C150,158,150,158,150,158" stroke-linejoin="round" stroke-linecap="round" stroke-width="8" opacity="0.182" transform="matrix(1,0,0,1,0,0)" style="-webkit-tap-highlight-color: rgba(0, 0, 0, 0); stroke-linejoin: round; stroke-linecap: round; opacity: 0.182;"></path><path fill="#0b8ac9" stroke="#0b8ac9" d="M150,198M150,158C226.98003589195008,158,275.0925583244189,191.33333333333334,236.60254037844388,218C218.7392608830357,230.37604307034013,185.72655899081636,238,150,238C73.01996410804992,238,24.907441675581104,204.66666666666666,63.39745962155612,178C81.26073911696429,165.62395692965987,114.27344100918364,158,150,158C150,158,150,158,150,158" stroke-linejoin="round" stroke-linecap="round" stroke-width="10" opacity="0.182" transform="matrix(1,0,0,1,0,0)" style="-webkit-tap-highlight-color: rgba(0, 0, 0, 0); stroke-linejoin: round; stroke-linecap: round; opacity: 0.182;"></path><path fill="#0b8ac9" stroke="#0b8ac9" d="M150,198M150,158C226.98003589195008,158,275.0925583244189,191.33333333333334,236.60254037844388,218C218.7392608830357,230.37604307034013,185.72655899081636,238,150,238C73.01996410804992,238,24.907441675581104,204.66666666666666,63.39745962155612,178C81.26073911696429,165.62395692965987,114.27344100918364,158,150,158C150,158,150,158,150,158" stroke-linejoin="round" stroke-linecap="round" stroke-width="12" opacity="0.182" transform="matrix(1,0,0,1,0,0)" style="-webkit-tap-highlight-color: rgba(0, 0, 0, 0); stroke-linejoin: round; stroke-linecap: round; opacity: 0.182;"></path><ellipse cx="150" cy="198" rx="100" ry="40" fill="#ffffff" stroke="#e11032" style="-webkit-tap-highlight-color: rgba(0, 0, 0, 0);"></ellipse><image x="100" y="170" width="90" height="60" preserveAspectRatio="none" xmlns:xlink="http://www.w3.org/1999/xlink" xlink:href="5circle.png" style="-webkit-tap-highlight-color: rgba(0, 0, 0, 0);"></image><text x="150" y="258" text-anchor="middle" font-family="&quot;Arial&quot;" font-size="10px" stroke="none" fill="#ffffff" style="-webkit-tap-highlight-color: rgba(0, 0, 0, 0); text-anchor: middle; font-family: Arial; font-size: 10px;"><tspan dy="4" style="-webkit-tap-highlight-color: rgba(0, 0, 0, 0);">同一个世界 同一个梦想</tspan></text><text x="150" y="273" text-anchor="middle" font-family="&quot;Arial&quot;" font-size="10px" stroke="none" fill="#ffffff" style="-webkit-tap-highlight-color: rgba(0, 0, 0, 0); text-anchor: middle; font-family: Arial; font-size: 10px;"><tspan dy="4" style="-webkit-tap-highlight-color: rgba(0, 0, 0, 0);">One World One Dream</tspan></text><path fill="none" stroke="#ffffff" d="M80,287L220,287" style="-webkit-tap-highlight-color: rgba(0, 0, 0, 0);"></path><path fill="none" stroke="#ffffff" d="M80,290L220,290" style="-webkit-tap-highlight-color: rgba(0, 0, 0, 0);"></path></svg>